<svg width="79" height="27" viewBox="0 0 79 27" fill="none" xmlns="http://www.w3.org/2000/svg">
<path d="M0.275568 27V0.818181H5.81108V11.6207H17.0483V0.818181H22.571V27H17.0483V16.1847H5.81108V27H0.275568ZM32.6705 0.818181V27H27.1349V0.818181H32.6705ZM37.2248 27V0.818181H47.5543C49.5316 0.818181 51.2191 1.17187 52.6168 1.87926C54.0231 2.57812 55.0927 3.57102 55.8256 4.85795C56.5671 6.13636 56.9379 7.64062 56.9379 9.37074C56.9379 11.1094 56.5629 12.6051 55.8129 13.858C55.0629 15.1023 53.9762 16.0568 52.5529 16.7216C51.1381 17.3864 49.4251 17.7188 47.4137 17.7188H40.4975V13.2699H46.5188C47.5756 13.2699 48.4535 13.125 49.1523 12.8352C49.8512 12.5455 50.3711 12.1108 50.712 11.5312C51.0614 10.9517 51.2362 10.2315 51.2362 9.37074C51.2362 8.50142 51.0614 7.76847 50.712 7.17188C50.3711 6.57528 49.8469 6.12358 49.1396 5.81676C48.4407 5.50142 47.5586 5.34375 46.4933 5.34375H42.7603V27H37.2248ZM51.364 15.0852L57.8711 27H51.7603L45.3938 15.0852H51.364ZM60.8498 27V0.818181H78.4918V5.3821H66.3853V11.6207H77.5842V16.1847H66.3853V22.4361H78.543V27H60.8498Z" fill="white"/>
</svg>